<?xml version="1.0" encoding="UTF-8"?>
<svg version="1.1" xmlns="http://www.w3.org/2000/svg" width="32" height="32">
<path d="M0 0 C0.680625 0.37125 1.36125 0.7425 2.0625 1.125 C2.743125 1.269375 3.42375 1.41375 4.125 1.5625 C6.53612696 2.2625046 7.32639754 3.32212437 9.0625 5.125 C10.609375 6.053125 10.609375 6.053125 12.1875 7 C15.0625 9.125 15.0625 9.125 15.9375 11.875 C15.97875 12.6175 16.02 13.36 16.0625 14.125 C12.0625 14.125 12.0625 14.125 10.125 12.3125 C9.444375 11.590625 8.76375 10.86875 8.0625 10.125 C7.19625 9.609375 6.33 9.09375 5.4375 8.5625 C3.0625 7.125 3.0625 7.125 1.0625 4.125 C-0.2575 4.125 -1.5775 4.125 -2.9375 4.125 C-2.6075 6.435 -2.2775 8.745 -1.9375 11.125 C-0.9475 11.455 0.0425 11.785 1.0625 12.125 C1.0625 13.115 1.0625 14.105 1.0625 15.125 C2.3825 15.125 3.7025 15.125 5.0625 15.125 C5.7225 16.445 6.3825 17.765 7.0625 19.125 C8.7125 19.125 10.3625 19.125 12.0625 19.125 C12.0625 18.135 12.0625 17.145 12.0625 16.125 C13.0525 15.795 14.0425 15.465 15.0625 15.125 C15.8125 17.375 15.8125 17.375 16.0625 20.125 C14.5 22.4375 14.5 22.4375 12.0625 24.125 C8.67735573 24.61866687 6.79796155 24.50266945 3.75 22.9375 C1.68389742 20.71835278 1.38407204 19.09954134 1.0625 16.125 C0.299375 16.186875 -0.46375 16.24875 -1.25 16.3125 C-3.9375 16.125 -3.9375 16.125 -5.5859375 14.92578125 C-7.36903793 12.55003183 -7.3069503 11.06889241 -7.25 8.125 C-7.24613281 7.25875 -7.24226562 6.3925 -7.23828125 5.5 C-6.9375 3.125 -6.9375 3.125 -4.9375 0.125 C-1.9375 -0.875 -1.9375 -0.875 0 0 Z " fill="#EEB59E" transform="translate(6.9375,7.875)"/>
<path d="M0 0 C0.66 0 1.32 0 2 0 C2 0.99 2 1.98 2 3 C3.32 3 4.64 3 6 3 C6.66 4.32 7.32 5.64 8 7 C9.65 7 11.3 7 13 7 C13 6.01 13 5.02 13 4 C13.99 3.67 14.98 3.34 16 3 C16.75 5.25 16.75 5.25 17 8 C15.4375 10.3125 15.4375 10.3125 13 12 C9.61485573 12.49366687 7.73546155 12.37766945 4.6875 10.8125 C2.62139742 8.59335278 2.32157204 6.97454134 2 4 C0.824375 4.0928125 0.824375 4.0928125 -0.375 4.1875 C-1.24125 4.125625 -2.1075 4.06375 -3 4 C-3.66 3.01 -4.32 2.02 -5 1 C-3.02 1.66 -1.04 2.32 1 3 C0.67 2.01 0.34 1.02 0 0 Z " fill="#CFA3BA" transform="translate(6,20)"/>
<path d="M0 0 C2.91517292 1.07401108 4.77810176 1.77810176 7 4 C7.7182079 8.32594992 7.74976887 11.90212416 5.25 15.5625 C3 17 3 17 -1 17 C-1 15.68 -1 14.36 -1 13 C-0.01 12.67 0.98 12.34 2 12 C3.0953531 10.20350035 3.0953531 10.20350035 3 8 C2.34 7.34 1.68 6.68 1 6 C0.34 5.34 -0.32 4.68 -1 4 C-0.75 1.75 -0.75 1.75 0 0 Z " fill="#BCDBA2" transform="translate(25,7)"/>
<path d="M0 0 C3.9375 0.5 3.9375 0.5 5.875 1.75 C7.06108098 3.70354514 7.64490219 5.232367 7.9375 7.5 C7.6075 8.16 7.2775 8.82 6.9375 9.5 C5 9.1875 5 9.1875 2.9375 8.5 C2.6075 7.51 2.2775 6.52 1.9375 5.5 C-1.40623475 6.05728913 -4.09562999 6.85173889 -7.0625 8.5 C-7.3925 7.51 -7.7225 6.52 -8.0625 5.5 C-5.98816228 1.62189034 -4.33877661 0.15209733 0 0 Z " fill="#F9DA9B" transform="translate(16.0625,-0.5)"/>
<path d="M0 0 C0.33 0 0.66 0 1 0 C1.28875 1.2375 1.5775 2.475 1.875 3.75 C2.61334794 6.72448742 3.44474933 9.333856 5 12 C2.61435923 11.42415568 0.33317216 10.77772405 -2 10 C-2.1953125 3.9453125 -2.1953125 3.9453125 -2 2 C-1.34 1.34 -0.68 0.68 0 0 Z " fill="#DF5C81" transform="translate(2,11)"/>
<path d="M0 0 C0.94875 0.04125 1.8975 0.0825 2.875 0.125 C3.205 1.115 3.535 2.105 3.875 3.125 C2.451875 3.24875 2.451875 3.24875 1 3.375 C-2.22961791 3.77574923 -2.22961791 3.77574923 -3.5 6.1875 C-3.70625 6.826875 -3.9125 7.46625 -4.125 8.125 C-5.115 7.795 -6.105 7.465 -7.125 7.125 C-4.56730769 0.18269231 -4.56730769 0.18269231 0 0 Z " fill="#F6BE6E" transform="translate(15.125,-0.125)"/>
<path d="M0 0 C2.91517292 1.07401108 4.77810176 1.77810176 7 4 C7.1953125 6.1640625 7.1953125 6.1640625 7.125 8.625 C7.10695313 9.44226562 7.08890625 10.25953125 7.0703125 11.1015625 C7.03550781 12.04128906 7.03550781 12.04128906 7 13 C6.67 13 6.34 13 6 13 C5.67 10.36 5.34 7.72 5 5 C4.01 6.485 4.01 6.485 3 8 C0.9375 6.25 0.9375 6.25 -1 4 C-0.75 1.75 -0.75 1.75 0 0 Z " fill="#EAE7AD" transform="translate(25,7)"/>
<path d="M0 0 C2.91517292 1.07401108 4.77810176 1.77810176 7 4 C7 5.32 7 6.64 7 8 C5.68 8 4.36 8 3 8 C0.6875 5.6875 0.6875 5.6875 -1 3 C-0.67 2.01 -0.34 1.02 0 0 Z " fill="#D5CCC0" transform="translate(16,14)"/>
<path d="M0 0 C0.66 0.33 1.32 0.66 2 1 C1.125 5.75 1.125 5.75 0 8 C-2 7 -4 6 -6 5 C-4.68 4.67 -3.36 4.34 -2 4 C-2 3.01 -2 2.02 -2 1 C-1.34 0.67 -0.68 0.34 0 0 Z " fill="#C4E1C7" transform="translate(21,23)"/>
<path d="M0 0 C1.65 0 3.3 0 5 0 C4.67 1.32 4.34 2.64 4 4 C2.68 4 1.36 4 0 4 C0 2.68 0 1.36 0 0 Z " fill="#BDDEB5" transform="translate(24,20)"/>
<path d="M0 0 C-0.33 0.99 -0.66 1.98 -1 3 C-1.66 3 -2.32 3 -3 3 C-3.33 3.66 -3.66 4.32 -4 5 C-4.33 4.34 -4.66 3.68 -5 3 C-5.99 3.495 -5.99 3.495 -7 4 C-6.67 3.01 -6.34 2.02 -6 1 C-4 0 -4 0 0 0 Z " fill="#F09D71" transform="translate(7,9)"/>
<path d="M0 0 C1.4540625 0.0309375 1.4540625 0.0309375 2.9375 0.0625 C3.2675 1.0525 3.5975 2.0425 3.9375 3.0625 C0.22150809 3.26336443 -0.83458445 3.2144437 -4.0625 1.0625 C-3.0625 0.0625 -3.0625 0.0625 0 0 Z " fill="#F5B63E" transform="translate(15.0625,-0.0625)"/>
<path d="M0 0 C1.15941038 3.47823115 0.70820884 5.45895578 0 9 C-0.66 8.67 -1.32 8.34 -2 8 C-2.125 5.125 -2.125 5.125 -2 2 C-1.34 1.34 -0.68 0.68 0 0 Z " fill="#DE3741" transform="translate(2,11)"/>
</svg>
