<?xml version="1.0" encoding="UTF-8"?>
<!DOCTYPE svg PUBLIC "-//W3C//DTD SVG 1.1//EN" "http://www.w3.org/Graphics/SVG/1.1/DTD/svg11.dtd">
<svg xmlns="http://www.w3.org/2000/svg" version="1.1" width="32px" height="32px" style="shape-rendering:geometricPrecision; text-rendering:geometricPrecision; image-rendering:optimizeQuality; fill-rule:evenodd; clip-rule:evenodd" xmlns:xlink="http://www.w3.org/1999/xlink">
<g><path style="opacity:0.78" fill="#fbcc81" d="M 11.5,-0.5 C 12.1667,-0.5 12.8333,-0.5 13.5,-0.5C 13.1667,0.166667 12.8333,0.833333 12.5,1.5C 11.8333,1.5 11.1667,1.5 10.5,1.5C 10.8333,0.833333 11.1667,0.166667 11.5,-0.5 Z"/></g>
<g><path style="opacity:1" fill="#f3a718" d="M 13.5,-0.5 C 14.8333,-0.5 16.1667,-0.5 17.5,-0.5C 17.5,0.5 17.5,1.5 17.5,2.5C 17.1667,2.5 16.8333,2.5 16.5,2.5C 15.4324,1.56552 14.099,1.23219 12.5,1.5C 12.8333,0.833333 13.1667,0.166667 13.5,-0.5 Z"/></g>
<g><path style="opacity:0.996" fill="#f4a82d" d="M 10.5,1.5 C 11.1667,1.5 11.8333,1.5 12.5,1.5C 14.099,1.23219 15.4324,1.56552 16.5,2.5C 14.7085,2.36596 13.0418,2.69929 11.5,3.5C 11.1667,2.83333 10.8333,2.16667 10.5,1.5 Z"/></g>
<g><path style="opacity:1" fill="#fcc566" d="M 17.5,-0.5 C 18.1667,-0.5 18.8333,-0.5 19.5,-0.5C 19.5,-0.166667 19.5,0.166667 19.5,0.5C 19.5,0.833333 19.5,1.16667 19.5,1.5C 18.375,2.34775 18.375,3.34775 19.5,4.5C 19.1667,4.5 18.8333,4.5 18.5,4.5C 17.8333,4.5 17.5,4.16667 17.5,3.5C 17.5,3.16667 17.5,2.83333 17.5,2.5C 17.5,1.5 17.5,0.5 17.5,-0.5 Z"/></g>
<g><path style="opacity:0.494" fill="#ffe4b7" d="M 19.5,0.5 C 21.2624,1.26231 22.2624,2.59565 22.5,4.5C 22.1667,4.5 21.8333,4.5 21.5,4.5C 21.5,3.83333 21.1667,3.5 20.5,3.5C 20.1667,2.83333 19.8333,2.16667 19.5,1.5C 19.5,1.16667 19.5,0.833333 19.5,0.5 Z"/></g>
<g><path style="opacity:1" fill="#f7a94a" d="M 10.5,1.5 C 10.8333,2.16667 11.1667,2.83333 11.5,3.5C 11.5,4.16667 11.5,4.83333 11.5,5.5C 11.5,6.16667 11.1667,6.5 10.5,6.5C 9.56552,5.43236 9.23219,4.09903 9.5,2.5C 9.5,1.83333 9.83333,1.5 10.5,1.5 Z"/></g>
<g><path style="opacity:1" fill="#f5ac16" d="M 19.5,1.5 C 19.8333,2.16667 20.1667,2.83333 20.5,3.5C 20.5,4.16667 20.1667,4.5 19.5,4.5C 18.375,3.34775 18.375,2.34775 19.5,1.5 Z"/></g>
<g><path style="opacity:0.047" fill="#fef3db" d="M 16.5,2.5 C 16.8333,2.5 17.1667,2.5 17.5,2.5C 17.5,2.83333 17.5,3.16667 17.5,3.5C 15.1417,3.2525 13.1417,3.91917 11.5,5.5C 11.5,4.83333 11.5,4.16667 11.5,3.5C 13.0418,2.69929 14.7085,2.36596 16.5,2.5 Z"/></g>
<g><path style="opacity:1" fill="#f5b225" d="M 20.5,3.5 C 21.1667,3.5 21.5,3.83333 21.5,4.5C 21.5,4.83333 21.5,5.16667 21.5,5.5C 20.8333,5.5 20.1667,5.5 19.5,5.5C 19.5,5.16667 19.5,4.83333 19.5,4.5C 20.1667,4.5 20.5,4.16667 20.5,3.5 Z"/></g>
<g><path style="opacity:0.557" fill="#fddcb6" d="M 9.5,2.5 C 9.23219,4.09903 9.56552,5.43236 10.5,6.5C 9.2566,7.73747 8.2566,7.40414 7.5,5.5C 7.94242,4.26133 8.60908,3.26133 9.5,2.5 Z"/></g>
<g><path style="opacity:0.075" fill="#fef0df" d="M 18.5,4.5 C 18.8333,4.5 19.1667,4.5 19.5,4.5C 19.5,4.83333 19.5,5.16667 19.5,5.5C 19.8333,6.5 20.5,7.16667 21.5,7.5C 21.8333,7.5 22.1667,7.5 22.5,7.5C 19.6702,9.03481 18.3369,8.03481 18.5,4.5 Z"/></g>
<g><path style="opacity:1" fill="#f3b436" d="M 19.5,5.5 C 20.1667,5.5 20.8333,5.5 21.5,5.5C 21.5,6.16667 21.5,6.83333 21.5,7.5C 20.5,7.16667 19.8333,6.5 19.5,5.5 Z"/></g>
<g><path style="opacity:0.639" fill="#fbdfa0" d="M 21.5,4.5 C 21.8333,4.5 22.1667,4.5 22.5,4.5C 23.8333,5.5 23.8333,6.5 22.5,7.5C 22.1667,7.5 21.8333,7.5 21.5,7.5C 21.5,6.83333 21.5,6.16667 21.5,5.5C 21.5,5.16667 21.5,4.83333 21.5,4.5 Z"/></g>
<g><path style="opacity:0.18" fill="#fbe4d8" d="M 3.5,7.5 C 3.5,7.83333 3.5,8.16667 3.5,8.5C 2.83333,8.5 2.5,8.83333 2.5,9.5C 2.16667,9.5 1.83333,9.5 1.5,9.5C 1.5,8.16667 2.16667,7.5 3.5,7.5 Z"/></g>
<g><path style="opacity:0.859" fill="#fab782" d="M 6.5,7.5 C 6.5,7.83333 6.5,8.16667 6.5,8.5C 5.5,8.5 4.5,8.5 3.5,8.5C 3.5,8.16667 3.5,7.83333 3.5,7.5C 4.65225,6.37505 5.65225,6.37505 6.5,7.5 Z"/></g>
<g><path style="opacity:0.812" fill="#fae9b0" d="M 28.5,8.5 C 26.5168,8.15684 25.1834,8.82351 24.5,10.5C 23.2089,9.45834 23.2089,8.29167 24.5,7C 26.1398,6.65219 27.4732,7.15219 28.5,8.5 Z"/></g>
<g><path style="opacity:1" fill="#ed7b31" d="M 2.5,9.5 C 2.5,8.83333 2.83333,8.5 3.5,8.5C 4.5,8.5 5.5,8.5 6.5,8.5C 6.16667,9.16667 5.83333,9.83333 5.5,10.5C 4.60895,9.89022 3.60895,9.55688 2.5,9.5 Z"/></g>
<g><path style="opacity:0.439" fill="#fad2ba" d="M 11.5,9.5 C 9.95186,9.82124 9.28519,10.8212 9.5,12.5C 9.5,12.8333 9.5,13.1667 9.5,13.5C 8.66175,13.1583 8.32842,12.4916 8.5,11.5C 8.5,10.8333 8.5,10.1667 8.5,9.5C 9.5,8.16667 10.5,8.16667 11.5,9.5 Z"/></g>
<g><path style="opacity:1" fill="#f79e78" d="M 1.5,9.5 C 1.83333,9.5 2.16667,9.5 2.5,9.5C 3.60895,9.55688 4.60895,9.89022 5.5,10.5C 4.5,11.5 3.5,12.5 2.5,13.5C 2.65473,10.1469 1.98807,9.81359 0.5,12.5C 0.166667,12.5 -0.166667,12.5 -0.5,12.5C -0.5,11.8333 -0.5,11.1667 -0.5,10.5C 0.166667,10.1667 0.833333,9.83333 1.5,9.5 Z"/></g>
<g><path style="opacity:0.021" fill="#feefe8" d="M 6.5,7.5 C 7.16667,8.16667 7.83333,8.83333 8.5,9.5C 8.5,10.1667 8.5,10.8333 8.5,11.5C 7.60895,10.8902 6.60895,10.5569 5.5,10.5C 5.83333,9.83333 6.16667,9.16667 6.5,8.5C 6.5,8.16667 6.5,7.83333 6.5,7.5 Z"/></g>
<g><path style="opacity:0.992" fill="#e8d55e" d="M 28.5,8.5 C 28.5,9.16667 28.5,9.83333 28.5,10.5C 27.1667,10.5 25.8333,10.5 24.5,10.5C 25.1834,8.82351 26.5168,8.15684 28.5,8.5 Z"/></g>
<g><path style="opacity:0.835" fill="#eee9a2" d="M 28.5,8.5 C 29.5,8.83333 30.1667,9.5 30.5,10.5C 30.5,10.8333 30.5,11.1667 30.5,11.5C 29.8333,11.1667 29.1667,10.8333 28.5,10.5C 28.5,9.83333 28.5,9.16667 28.5,8.5 Z"/></g>
<g><path style="opacity:0.973" fill="#eae6a5" d="M 24.5,10.5 C 25.8333,10.5 27.1667,10.5 28.5,10.5C 28.5,11.1667 28.5,11.8333 28.5,12.5C 28.1667,12.5 27.8333,12.5 27.5,12.5C 26.2905,12.0679 25.2905,11.4013 24.5,10.5 Z"/></g>
<g><path style="opacity:0.973" fill="#e55632" d="M 2.5,13.5 C 2.16667,13.5 1.83333,13.5 1.5,13.5C 1.5,12.8333 1.16667,12.5 0.5,12.5C 1.98807,9.81359 2.65473,10.1469 2.5,13.5 Z"/></g>
<g><path style="opacity:1" fill="#e6743e" d="M 11.5,9.5 C 11.7148,11.1788 11.0481,12.1788 9.5,12.5C 9.28519,10.8212 9.95186,9.82124 11.5,9.5 Z"/></g>
<g><path style="opacity:0.971" fill="#cdd663" d="M 28.5,10.5 C 29.1667,10.8333 29.8333,11.1667 30.5,11.5C 30.5,11.8333 30.5,12.1667 30.5,12.5C 29.8333,12.5 29.1667,12.5 28.5,12.5C 28.5,11.8333 28.5,11.1667 28.5,10.5 Z"/></g>
<g><path style="opacity:0.992" fill="#ed9577" d="M 11.5,9.5 C 12.3382,9.84171 12.6716,10.5084 12.5,11.5C 12.5,12.1667 12.5,12.8333 12.5,13.5C 12.1667,13.5 11.8333,13.5 11.5,13.5C 10.8333,13.5 10.1667,13.5 9.5,13.5C 9.5,13.1667 9.5,12.8333 9.5,12.5C 11.0481,12.1788 11.7148,11.1788 11.5,9.5 Z"/></g>
<g><path style="opacity:0.098" fill="#f8d4c3" d="M 12.5,11.5 C 13.7095,11.9321 14.7095,12.5987 15.5,13.5C 14.5,13.5 13.5,13.5 12.5,13.5C 12.5,12.8333 12.5,12.1667 12.5,11.5 Z"/></g>
<g><path style="opacity:0.988" fill="#b9d370" d="M 28.5,12.5 C 29.1667,12.5 29.8333,12.5 30.5,12.5C 30.6716,13.4916 30.3382,14.1583 29.5,14.5C 29.1667,13.8333 28.8333,13.1667 28.5,12.5 Z"/></g>
<g><path style="opacity:1" fill="#e03e36" d="M -0.5,12.5 C -0.166667,12.5 0.166667,12.5 0.5,12.5C 1.16667,12.5 1.5,12.8333 1.5,13.5C 1.5,13.8333 1.5,14.1667 1.5,14.5C 0.833333,14.5 0.166667,14.5 -0.5,14.5C -0.5,13.8333 -0.5,13.1667 -0.5,12.5 Z"/></g>
<g><path style="opacity:0.525" fill="#f4c3be" d="M 9.5,13.5 C 10.1667,13.5 10.8333,13.5 11.5,13.5C 11.8333,14.5 12.5,15.1667 13.5,15.5C 13.5,15.8333 13.5,16.1667 13.5,16.5C 11.5956,16.2624 10.2623,15.2624 9.5,13.5 Z"/></g>
<g><path style="opacity:1" fill="#d97e68" d="M 11.5,13.5 C 11.8333,13.5 12.1667,13.5 12.5,13.5C 13.5,13.5 14.5,13.5 15.5,13.5C 16.6602,15.2027 15.9935,15.8693 13.5,15.5C 12.5,15.1667 11.8333,14.5 11.5,13.5 Z"/></g>
<g><path style="opacity:0.647" fill="#d6e8bf" d="M 27.5,12.5 C 27.8333,12.5 28.1667,12.5 28.5,12.5C 28.8333,13.1667 29.1667,13.8333 29.5,14.5C 29.5,15.1667 29.1667,15.5 28.5,15.5C 27.8902,14.609 27.5569,13.609 27.5,12.5 Z"/></g>
<g><path style="opacity:1" fill="#da1736" d="M -0.5,14.5 C 0.166667,14.5 0.833333,14.5 1.5,14.5C 1.5,15.1667 1.5,15.8333 1.5,16.5C 0.833333,16.5 0.166667,16.5 -0.5,16.5C -0.5,15.8333 -0.5,15.1667 -0.5,14.5 Z"/></g>
<g><path style="opacity:1" fill="#dba599" d="M 15.5,13.5 C 16.4916,13.3284 17.1583,13.6618 17.5,14.5C 17.5,14.8333 17.5,15.1667 17.5,15.5C 17.5,16.1667 17.1667,16.5 16.5,16.5C 15.8333,16.5 15.1667,16.5 14.5,16.5C 14.1667,16.5 13.8333,16.5 13.5,16.5C 13.5,16.1667 13.5,15.8333 13.5,15.5C 15.9935,15.8693 16.6602,15.2027 15.5,13.5 Z"/></g>
<g><path style="opacity:1" fill="#dd3958" d="M -0.5,16.5 C 0.166667,16.5 0.833333,16.5 1.5,16.5C 1.16667,17.5 0.5,18.1667 -0.5,18.5C -0.5,17.8333 -0.5,17.1667 -0.5,16.5 Z"/></g>
<g><path style="opacity:0.988" fill="#c89c92" d="M 17.5,15.5 C 18.8333,16.1667 18.8333,16.8333 17.5,17.5C 16.8333,17.5 16.5,17.1667 16.5,16.5C 17.1667,16.5 17.5,16.1667 17.5,15.5 Z"/></g>
<g><path style="opacity:1" fill="#d0bdaf" d="M 17.5,15.5 C 17.5,15.1667 17.5,14.8333 17.5,14.5C 19.0269,14.427 20.0269,15.0937 20.5,16.5C 20.5,16.8333 20.5,17.1667 20.5,17.5C 19.8333,17.5 19.5,17.8333 19.5,18.5C 18.8333,18.5 18.1667,18.5 17.5,18.5C 17.5,18.1667 17.5,17.8333 17.5,17.5C 18.8333,16.8333 18.8333,16.1667 17.5,15.5 Z"/></g>
<g><path style="opacity:0.149" fill="#f5e6e5" d="M 14.5,16.5 C 15.1667,16.5 15.8333,16.5 16.5,16.5C 16.5,17.1667 16.8333,17.5 17.5,17.5C 17.5,17.8333 17.5,18.1667 17.5,18.5C 15.9731,18.573 14.9731,17.9063 14.5,16.5 Z"/></g>
<g><path style="opacity:0.969" fill="#a7d49e" d="M 30.5,10.5 C 30.8333,10.5 31.1667,10.5 31.5,10.5C 31.5,13.5 31.5,16.5 31.5,19.5C 31.1667,19.5 30.8333,19.5 30.5,19.5C 29.8333,19.8333 29.1667,20.1667 28.5,20.5C 27.8333,20.5 27.1667,20.5 26.5,20.5C 26.5,20.1667 26.5,19.8333 26.5,19.5C 28.0481,19.1788 28.7148,18.1788 28.5,16.5C 28.5,16.1667 28.5,15.8333 28.5,15.5C 29.1667,15.5 29.5,15.1667 29.5,14.5C 30.3382,14.1583 30.6716,13.4916 30.5,12.5C 30.5,12.1667 30.5,11.8333 30.5,11.5C 30.5,11.1667 30.5,10.8333 30.5,10.5 Z"/></g>
<g><path style="opacity:0.208" fill="#e5ede3" d="M 20.5,16.5 C 22.5969,17.8786 22.9302,19.5453 21.5,21.5C 21.5674,20.0413 21.2341,18.7079 20.5,17.5C 20.5,17.1667 20.5,16.8333 20.5,16.5 Z"/></g>
<g><path style="opacity:0.878" fill="#c2e2c1" d="M 28.5,16.5 C 28.7148,18.1788 28.0481,19.1788 26.5,19.5C 26.9321,18.2905 27.5987,17.2905 28.5,16.5 Z"/></g>
<g><path style="opacity:0.99" fill="#e76f7f" d="M 1.5,13.5 C 1.83333,13.5 2.16667,13.5 2.5,13.5C 2.62867,15.2161 2.962,16.8828 3.5,18.5C 3.5,19.1667 3.5,19.8333 3.5,20.5C 3.16667,20.5 2.83333,20.5 2.5,20.5C 1.83333,20.5 1.16667,20.5 0.5,20.5C 0.166667,20.5 -0.166667,20.5 -0.5,20.5C -0.5,19.8333 -0.5,19.1667 -0.5,18.5C 0.5,18.1667 1.16667,17.5 1.5,16.5C 1.5,15.8333 1.5,15.1667 1.5,14.5C 1.5,14.1667 1.5,13.8333 1.5,13.5 Z"/></g>
<g><path style="opacity:0.878" fill="#e77991" d="M 3.5,18.5 C 4.16667,18.8333 4.83333,19.1667 5.5,19.5C 5.5,19.8333 5.5,20.1667 5.5,20.5C 4.83333,20.5 4.16667,20.5 3.5,20.5C 3.5,19.8333 3.5,19.1667 3.5,18.5 Z"/></g>
<g><path style="opacity:1" fill="#a6c4a8" d="M 20.5,17.5 C 21.2341,18.7079 21.5674,20.0413 21.5,21.5C 20.8333,21.5 20.1667,21.5 19.5,21.5C 19.5,20.5 19.5,19.5 19.5,18.5C 19.5,17.8333 19.8333,17.5 20.5,17.5 Z"/></g>
<g><path style="opacity:0.22" fill="#e4f1e2" d="M 26.5,19.5 C 26.5,19.8333 26.5,20.1667 26.5,20.5C 25.6236,20.3691 24.9569,20.7025 24.5,21.5C 25.325,22.3857 26.325,22.719 27.5,22.5C 26.4324,23.4345 25.099,23.7678 23.5,23.5C 23.5,22.1667 23.5,20.8333 23.5,19.5C 24.5,19.5 25.5,19.5 26.5,19.5 Z"/></g>
<g><path style="opacity:0.722" fill="#efa4b7" d="M 0.5,20.5 C 1.16667,20.5 1.83333,20.5 2.5,20.5C 3.28696,22.1042 4.6203,22.7709 6.5,22.5C 6.5,22.8333 6.5,23.1667 6.5,23.5C 3.6874,23.9754 1.6874,22.9754 0.5,20.5 Z"/></g>
<g><path style="opacity:1" fill="#cf134c" d="M 2.5,20.5 C 2.83333,20.5 3.16667,20.5 3.5,20.5C 4.16667,20.5 4.83333,20.5 5.5,20.5C 6.33825,20.8417 6.67158,21.5084 6.5,22.5C 4.6203,22.7709 3.28696,22.1042 2.5,20.5 Z"/></g>
<g><path style="opacity:0.114" fill="#f7e5ed" d="M 5.5,20.5 C 5.5,20.1667 5.5,19.8333 5.5,19.5C 7.04814,19.8212 7.71481,20.8212 7.5,22.5C 7.16667,22.5 6.83333,22.5 6.5,22.5C 6.67158,21.5084 6.33825,20.8417 5.5,20.5 Z"/></g>
<g><path style="opacity:0.027" fill="#f0f0ee" d="M 17.5,18.5 C 18.1667,18.5 18.8333,18.5 19.5,18.5C 19.5,19.5 19.5,20.5 19.5,21.5C 18.5987,20.7095 17.9321,19.7095 17.5,18.5 Z"/></g>
<g><path style="opacity:0.99" fill="#96cb88" d="M 26.5,20.5 C 27.1667,20.5 27.8333,20.5 28.5,20.5C 28.1667,21.1667 27.8333,21.8333 27.5,22.5C 26.325,22.719 25.325,22.3857 24.5,21.5C 24.9569,20.7025 25.6236,20.3691 26.5,20.5 Z"/></g>
<g><path style="opacity:0.02" fill="#ebf5e9" d="M 30.5,19.5 C 30.5,21.5 29.5,22.5 27.5,22.5C 27.8333,21.8333 28.1667,21.1667 28.5,20.5C 29.1667,20.1667 29.8333,19.8333 30.5,19.5 Z"/></g>
<g><path style="opacity:0.341" fill="#efbed2" d="M 8.5,23.5 C 8.5,23.1667 8.5,22.8333 8.5,22.5C 10.1788,22.2852 11.1788,22.9519 11.5,24.5C 11.1667,24.5 10.8333,24.5 10.5,24.5C 10.1583,23.6618 9.49162,23.3284 8.5,23.5 Z"/></g>
<g><path style="opacity:0.608" fill="#deefdf" d="M 21.5,27.5 C 21.5,27.1667 21.5,26.8333 21.5,26.5C 20.8333,23.8333 20.1667,23.8333 19.5,26.5C 19.1667,26.5 18.8333,26.5 18.5,26.5C 18.4609,24.6412 19.2942,23.3079 21,22.5C 22.6773,24.1484 22.844,25.8151 21.5,27.5 Z"/></g>
<g><path style="opacity:0.059" fill="#fff2f4" d="M 6.5,23.5 C 6.5,23.1667 6.5,22.8333 6.5,22.5C 6.83333,22.5 7.16667,22.5 7.5,22.5C 7.83333,22.5 8.16667,22.5 8.5,22.5C 8.5,22.8333 8.5,23.1667 8.5,23.5C 8.5,24.1667 8.5,24.8333 8.5,25.5C 7.83333,24.8333 7.16667,24.1667 6.5,23.5 Z"/></g>
<g><path style="opacity:1" fill="#cc306f" d="M 8.5,23.5 C 9.49162,23.3284 10.1583,23.6618 10.5,24.5C 10.6716,25.4916 10.3382,26.1583 9.5,26.5C 9.16667,26.5 8.83333,26.5 8.5,26.5C 8.5,26.1667 8.5,25.8333 8.5,25.5C 8.5,24.8333 8.5,24.1667 8.5,23.5 Z"/></g>
<g><path style="opacity:0.992" fill="#89c787" d="M 21.5,26.5 C 20.8333,26.5 20.1667,26.5 19.5,26.5C 20.1667,23.8333 20.8333,23.8333 21.5,26.5 Z"/></g>
<g><path style="opacity:1" fill="#c4357a" d="M 10.5,24.5 C 10.8333,24.5 11.1667,24.5 11.5,24.5C 11.719,25.675 11.3857,26.675 10.5,27.5C 9.89333,27.3764 9.55999,27.0431 9.5,26.5C 10.3382,26.1583 10.6716,25.4916 10.5,24.5 Z"/></g>
<g><path style="opacity:0.337" fill="#d4e4de" d="M 18.5,26.5 C 18.1667,27.1667 17.8333,27.8333 17.5,28.5C 16.8333,28.5 16.1667,28.5 15.5,28.5C 15.1667,28.5 14.8333,28.5 14.5,28.5C 14.5,28.1667 14.5,27.8333 14.5,27.5C 15.8333,27.1667 17.1667,26.8333 18.5,26.5 Z"/></g>
<g><path style="opacity:0.992" fill="#d083ac" d="M 11.5,24.5 C 12.3382,24.8417 12.6716,25.5084 12.5,26.5C 12.3284,27.4916 12.6618,28.1583 13.5,28.5C 13.5,29.1667 13.1667,29.5 12.5,29.5C 11.609,28.8902 10.609,28.5569 9.5,28.5C 8.66175,28.1583 8.32842,27.4916 8.5,26.5C 8.83333,26.5 9.16667,26.5 9.5,26.5C 9.55999,27.0431 9.89333,27.3764 10.5,27.5C 11.3857,26.675 11.719,25.675 11.5,24.5 Z"/></g>
<g><path style="opacity:0.843" fill="#ca97ba" d="M 12.5,26.5 C 13.1667,26.8333 13.8333,27.1667 14.5,27.5C 14.5,27.8333 14.5,28.1667 14.5,28.5C 14.1667,28.5 13.8333,28.5 13.5,28.5C 12.6618,28.1583 12.3284,27.4916 12.5,26.5 Z"/></g>
<g><path style="opacity:0.941" fill="#b7ddb5" d="M 19.5,26.5 C 20.1667,26.5 20.8333,26.5 21.5,26.5C 21.5,26.8333 21.5,27.1667 21.5,27.5C 21.1436,29.1898 20.1436,30.1898 18.5,30.5C 19.2341,29.2921 19.5674,27.9587 19.5,26.5 Z"/></g>
<g><path style="opacity:1" fill="#81c399" d="M 18.5,26.5 C 18.8333,26.5 19.1667,26.5 19.5,26.5C 19.5674,27.9587 19.2341,29.2921 18.5,30.5C 17.6618,30.1583 17.3284,29.4916 17.5,28.5C 17.8333,27.8333 18.1667,27.1667 18.5,26.5 Z"/></g>
<g><path style="opacity:0.404" fill="#e5bfd7" d="M 9.5,28.5 C 10.609,28.5569 11.609,28.8902 12.5,29.5C 12.5,29.8333 12.5,30.1667 12.5,30.5C 10.9731,30.573 9.97306,29.9063 9.5,28.5 Z"/></g>
<g><path style="opacity:0.961" fill="#96739f" d="M 13.5,28.5 C 13.8333,28.5 14.1667,28.5 14.5,28.5C 14.8333,28.5 15.1667,28.5 15.5,28.5C 15.1788,30.0481 14.1788,30.7148 12.5,30.5C 12.5,30.1667 12.5,29.8333 12.5,29.5C 13.1667,29.5 13.5,29.1667 13.5,28.5 Z"/></g>
<g><path style="opacity:0.922" fill="#9db9b9" d="M 15.5,28.5 C 16.1667,28.5 16.8333,28.5 17.5,28.5C 17.3284,29.4916 17.6618,30.1583 18.5,30.5C 18.5,30.8333 18.5,31.1667 18.5,31.5C 16.5,31.5 14.5,31.5 12.5,31.5C 12.5,31.1667 12.5,30.8333 12.5,30.5C 14.1788,30.7148 15.1788,30.0481 15.5,28.5 Z"/></g>
</svg>
