<?xml version="1.0" encoding="UTF-8"?>
<!DOCTYPE svg PUBLIC "-//W3C//DTD SVG 1.1//EN" "http://www.w3.org/Graphics/SVG/1.1/DTD/svg11.dtd">
<svg xmlns="http://www.w3.org/2000/svg" version="1.1" width="236px" height="237px" style="shape-rendering:geometricPrecision; text-rendering:geometricPrecision; image-rendering:optimizeQuality; fill-rule:evenodd; clip-rule:evenodd" xmlns:xlink="http://www.w3.org/1999/xlink">
<g><path style="opacity:0.993" fill="#c40a4f" d="M 102.5,-0.5 C 112.5,-0.5 122.5,-0.5 132.5,-0.5C 180.116,7.58005 212.616,34.2467 230,79.5C 232.3,87.1937 234.134,94.8604 235.5,102.5C 235.5,112.5 235.5,122.5 235.5,132.5C 227.518,178.662 201.851,210.828 158.5,229C 106.767,244.859 62.6002,233.026 26,193.5C 11.6572,175.489 2.82387,155.155 -0.5,132.5C -0.5,122.5 -0.5,112.5 -0.5,102.5C 7.58005,54.8843 34.2467,22.3843 79.5,5C 87.1937,2.69968 94.8604,0.866349 102.5,-0.5 Z"/></g>
<g><path style="opacity:1" fill="#fef9fb" d="M 110.5,19.5 C 114.167,19.5 117.833,19.5 121.5,19.5C 121.5,22.1667 121.5,24.8333 121.5,27.5C 116.968,27.1818 112.634,27.5151 108.5,28.5C 69.1634,33.9987 43.3301,55.6654 31,93.5C 21.7923,135.889 34.959,169.389 70.5,194C 96.8697,208.396 124.203,210.396 152.5,200C 185.439,184.635 203.439,158.801 206.5,122.5C 186.674,121.503 166.674,121.17 146.5,121.5C 146.5,118.833 146.5,116.167 146.5,113.5C 169.5,113.5 192.5,113.5 215.5,113.5C 215.5,116.833 215.5,120.167 215.5,123.5C 212.148,162.678 192.815,190.844 157.5,208C 110.222,225.39 70.3884,214.89 38,176.5C 10.7267,134.503 12.06,93.503 42,53.5C 60.1179,32.6911 82.9513,21.3577 110.5,19.5 Z"/></g>
<g><path style="opacity:1" fill="#e79ab7" d="M 110.5,19.5 C 114.298,18.5166 118.298,18.1832 122.5,18.5C 122.5,21.8333 122.5,25.1667 122.5,28.5C 117.833,28.5 113.167,28.5 108.5,28.5C 112.634,27.5151 116.968,27.1818 121.5,27.5C 121.5,24.8333 121.5,22.1667 121.5,19.5C 117.833,19.5 114.167,19.5 110.5,19.5 Z"/></g>
<g><path style="opacity:1" fill="#fefbfc" d="M 76.5,65.5 C 91.8203,66.6417 96.6536,74.3084 91,88.5C 82.9712,95.4621 75.3046,95.1287 68,87.5C 63.48,77.216 66.3134,69.8827 76.5,65.5 Z"/></g>
<g><path style="opacity:1" fill="#f0c3d4" d="M 122.5,159.5 C 121.502,128.671 121.169,97.6712 121.5,66.5C 118.833,66.5 116.167,66.5 113.5,66.5C 113.5,100.5 113.5,134.5 113.5,168.5C 124.167,168.5 134.833,168.5 145.5,168.5C 134.679,169.495 123.679,169.828 112.5,169.5C 112.5,134.833 112.5,100.167 112.5,65.5C 115.833,65.5 119.167,65.5 122.5,65.5C 122.5,96.8333 122.5,128.167 122.5,159.5 Z"/></g>
<g><path style="opacity:1" fill="#fefefe" d="M 122.5,159.5 C 129.982,160.492 137.648,160.825 145.5,160.5C 145.5,163.167 145.5,165.833 145.5,168.5C 134.833,168.5 124.167,168.5 113.5,168.5C 113.5,134.5 113.5,100.5 113.5,66.5C 116.167,66.5 118.833,66.5 121.5,66.5C 121.169,97.6712 121.502,128.671 122.5,159.5 Z"/></g>
<g><path style="opacity:1" fill="#e38eae" d="M 145.5,113.5 C 168.994,112.502 192.661,112.169 216.5,112.5C 216.815,116.371 216.482,120.038 215.5,123.5C 215.5,120.167 215.5,116.833 215.5,113.5C 192.5,113.5 169.5,113.5 146.5,113.5C 146.167,113.5 145.833,113.5 145.5,113.5 Z"/></g>
<g><path style="opacity:1" fill="#ebb0c6" d="M 145.5,113.5 C 145.833,113.5 146.167,113.5 146.5,113.5C 146.5,116.167 146.5,118.833 146.5,121.5C 166.674,121.17 186.674,121.503 206.5,122.5C 186.167,122.5 165.833,122.5 145.5,122.5C 145.5,119.5 145.5,116.5 145.5,113.5 Z"/></g>
</svg>
